HIERARCHY
ROOT Hips
{
	OFFSET -0.001795 -0.223333 0.028219
	CHANNELS 6 Xposition Yposition Zposition Zrotation Yrotation Xrotation 
	JOINT LeftUpLeg
	{
		OFFSET 0.069520 -0.091406 -0.006815
		CHANNELS 3 Zrotation Yrotation Xrotation
		JOINT LeftLeg
		{
			OFFSET 0.034277 -0.375199 -0.004496
			CHANNELS 3 Zrotation Yrotation Xrotation
			JOINT LeftFoot
			{
				OFFSET -0.013596 -0.397961 -0.043693
				CHANNELS 3 Zrotation Yrotation Xrotation
				JOINT LeftToe
				{
					OFFSET 0.026358 -0.055791 0.119288
					CHANNELS 3 Zrotation Yrotation Xrotation
					End Site
					{
						OFFSET 0.000000 0.000000 0.000000
					}
				}
			}
		}
	}
	JOINT RightUpLeg
	{
		OFFSET -0.067670 -0.090522 -0.004320
		CHANNELS 3 Zrotation Yrotation Xrotation
		JOINT RightLeg
		{
			OFFSET -0.038290 -0.382569 -0.008850
			CHANNELS 3 Zrotation Yrotation Xrotation
			JOINT RightFoot
			{
				OFFSET 0.015774 -0.398415 -0.042312
				CHANNELS 3 Zrotation Yrotation Xrotation
				JOINT RightToe
				{
					OFFSET -0.025372 -0.048144 0.123348
					CHANNELS 3 Zrotation Yrotation Xrotation
					End Site
					{
						OFFSET 0.000000 0.000000 0.000000
					}
				}
			}
		}
	}
	JOINT Spine
	{
		OFFSET -0.002533 0.108963 -0.026696
		CHANNELS 3 Zrotation Yrotation Xrotation
		JOINT Spine1
		{
			OFFSET 0.005487 0.135180 0.001092
			CHANNELS 3 Zrotation Yrotation Xrotation
			JOINT Spine2
			{
				OFFSET 0.001457 0.052922 0.025425
				CHANNELS 3 Zrotation Yrotation Xrotation
				JOINT Neck
				{
					OFFSET -0.002778 0.213870 -0.042857
					CHANNELS 3 Zrotation Yrotation Xrotation
					JOINT Head
					{
						OFFSET 0.005152 0.064970 0.051349
						CHANNELS 3 Zrotation Yrotation Xrotation
						End Site
						{
							OFFSET 0.000000 0.000000 0.000000
						}
					}
				}
				JOINT LeftShoulder
				{
					OFFSET 0.078845 0.121749 -0.034090
					CHANNELS 3 Zrotation Yrotation Xrotation
					JOINT LeftArm
					{
						OFFSET 0.090977 0.030469 -0.008868
						CHANNELS 3 Zrotation Yrotation Xrotation
						JOINT LeftForeArm
						{
							OFFSET 0.259612 -0.012772 -0.027456
							CHANNELS 3 Zrotation Yrotation Xrotation
							JOINT LeftHand
							{
								OFFSET 0.249234 0.008986 -0.001171
								CHANNELS 3 Zrotation Yrotation Xrotation
								End Site
								{
									OFFSET 0.000000 0.000000 0.000000
								}
							}
						}
					}
				}
				JOINT RightShoulder
				{
					OFFSET -0.081759 0.118833 -0.038615
					CHANNELS 3 Zrotation Yrotation Xrotation
					JOINT RightArm
					{
						OFFSET -0.096012 0.032551 -0.009143
						CHANNELS 3 Zrotation Yrotation Xrotation
						JOINT RightForeArm
						{
							OFFSET -0.253742 -0.013329 -0.021401
							CHANNELS 3 Zrotation Yrotation Xrotation
							JOINT RightHand
							{
								OFFSET -0.255298 0.007772 -0.005559
								CHANNELS 3 Zrotation Yrotation Xrotation
								End Site
								{
									OFFSET 0.000000 0.000000 0.000000
								}
							}
						}
					}
				}
			}
		}
	}
}
MOTION
Frames: 11
Frame Time: 0.050000
0.410020 0.909921 -1.422315 1.940921 0.429127 -4.398372 17.078529 0.586389 -10.824188 -6.410984 0.817576 5.131658 5.239368 14.349161 21.334717 0.000000 0.000000 0.000000 -3.961530 0.475295 -6.681738 8.228678 -1.533373 18.843558 -5.064607 -11.618631 -4.518707 0.000000 0.000000 0.000000 10.469500 -3.972553 29.848113 -6.401334 2.131409 -26.712347 -3.822219 4.357033 23.011788 10.480611 -2.384982 -34.078875 0.000000 0.000000 0.000000 -25.805089 -12.645640 4.260168 -38.721889 -15.548564 -1.067001 -12.821411 -34.381595 5.153212 0.000000 0.000000 0.000000 31.960684 -0.020607 -0.244150 40.852171 16.180794 -1.257528 8.732865 29.317851 3.576227 0.000000 0.000000 0.000000 
0.404243 0.910645 -1.423485 1.764595 0.547864 -4.527638 16.685403 0.491905 -9.777109 -6.317875 0.789084 4.550373 5.627055 14.786340 20.536138 0.000000 0.000000 0.000000 -3.401663 0.476626 -6.342909 7.992478 -1.460416 18.328861 -5.025881 -11.602008 -4.216913 0.000000 0.000000 0.000000 10.816656 -4.039685 29.618125 -6.442913 2.147052 -26.705839 -3.787418 4.481456 22.973857 10.403644 -2.514061 -32.852560 0.000000 0.000000 0.000000 -26.028553 -12.388232 4.024565 -39.288994 -14.146945 -1.471192 -13.737432 -34.374757 5.435027 0.000000 0.000000 0.000000 32.238185 -0.573629 -0.551038 41.169819 15.178871 -1.612028 9.308484 29.094626 3.710993 0.000000 0.000000 0.000000 
0.400685 0.910432 -1.423995 1.621691 0.801502 -4.493970 16.483305 0.431022 -9.226322 -6.477648 0.801568 4.258927 5.729937 14.878970 19.835848 0.000000 0.000000 0.000000 -2.972973 0.481479 -6.161624 7.820657 -1.412664 17.783297 -5.160345 -12.006094 -4.157782 0.000000 0.000000 0.000000 11.267190 -4.114667 29.151093 -6.211387 2.101671 -26.567750 -4.081982 4.651803 23.039299 10.964179 -2.870328 -32.139490 0.000000 0.000000 0.000000 -26.393334 -11.652830 3.439525 -39.323479 -13.299563 -1.688012 -14.846164 -33.909021 5.677769 0.000000 0.000000 0.000000 32.292905 -1.665845 -1.185505 41.380885 14.031355 -2.027609 10.369402 29.479476 4.077838 0.000000 0.000000 0.000000 
0.398781 0.909674 -1.424749 1.606962 0.698339 -4.440125 16.325195 0.388101 -8.546434 -6.596605 0.804085 3.533546 6.163665 15.466205 20.071797 0.000000 0.000000 0.000000 -2.820471 0.505717 -6.379308 7.911054 -1.444893 18.196886 -5.256845 -12.213509 -4.360811 0.000000 0.000000 0.000000 11.496596 -4.140087 28.966386 -6.170377 2.093905 -26.397550 -4.321684 4.479590 22.991839 11.320030 -3.104252 -32.055730 0.000000 0.000000 0.000000 -26.703543 -11.387234 3.340192 -39.462392 -12.865757 -1.834213 -14.792230 -33.457645 5.599092 0.000000 0.000000 0.000000 32.572624 -2.262588 -1.715635 41.783624 13.502717 -2.174600 10.773799 29.263909 4.152935 0.000000 0.000000 0.000000 
0.397948 0.908737 -1.425886 1.551291 0.798530 -4.253606 16.191792 0.359817 -8.419739 -6.590184 0.800849 3.514872 6.485662 15.862833 19.641613 0.000000 0.000000 0.000000 -2.628280 0.554588 -6.893043 7.943644 -1.479193 18.735685 -5.238248 -12.147665 -4.484322 0.000000 0.000000 0.000000 11.525416 -4.171567 29.007554 -5.904114 2.037117 -26.317306 -4.655402 4.235638 23.082866 11.509124 -3.227711 -32.056478 0.000000 0.000000 0.000000 -26.876503 -11.345642 3.380701 -39.524674 -12.954334 -1.826920 -14.540638 -32.956810 5.451821 0.000000 0.000000 0.000000 32.810338 -2.389365 -1.901488 42.207464 13.354719 -2.203364 10.741719 29.715590 4.226109 0.000000 0.000000 0.000000 
0.397774 0.908261 -1.427128 1.490273 1.097743 -4.178840 15.973746 0.320491 -8.316344 -6.466685 0.785579 3.882267 6.933081 16.451472 19.190827 0.000000 0.000000 0.000000 -2.820807 0.603911 -7.705808 8.239142 -1.621429 19.746661 -5.402273 -12.583392 -4.673416 0.000000 0.000000 0.000000 11.479607 -4.294701 29.656645 -5.791504 2.010147 -26.349651 -4.725423 3.921434 23.043593 11.670365 -3.476054 -31.269668 0.000000 0.000000 0.000000 -27.458247 -11.726337 3.658251 -38.823035 -13.187999 -1.731084 -13.750736 -32.597932 5.157854 0.000000 0.000000 0.000000 33.108695 -2.521001 -2.095527 42.182970 13.480002 -2.136140 10.414336 29.821328 4.151167 0.000000 0.000000 0.000000 
0.398296 0.908067 -1.427928 1.423401 1.024743 -4.187309 15.832131 0.307431 -8.147134 -6.570938 0.805889 4.061123 7.466810 17.154342 19.197505 0.000000 0.000000 0.000000 -2.728648 0.631469 -7.992209 8.083826 -1.589422 20.224808 -5.329415 -12.333580 -4.879147 0.000000 0.000000 0.000000 11.511828 -4.411893 30.382733 -5.546450 1.961398 -26.096454 -5.051081 3.948669 22.624082 11.406302 -3.312116 -31.250794 0.000000 0.000000 0.000000 -27.383235 -12.048964 3.828873 -38.589840 -13.760126 -1.508212 -13.920543 -32.714121 5.213606 0.000000 0.000000 0.000000 33.504399 -2.689915 -2.260735 42.408662 13.641318 -2.049134 9.888525 29.546910 3.973915 0.000000 0.000000 0.000000 
0.399583 0.908299 -1.428081 1.400655 0.955887 -4.330001 15.787190 0.285589 -7.519655 -6.618581 0.814405 4.067934 7.949085 17.763247 18.787263 0.000000 0.000000 0.000000 -2.449742 0.650631 -8.026738 7.583028 -1.446994 20.524569 -5.245861 -12.071686 -4.989047 0.000000 0.000000 0.000000 11.666126 -4.571401 31.202184 -5.796454 2.003597 -26.614142 -5.045903 3.595007 22.686438 10.648265 -3.061183 -30.730841 0.000000 0.000000 0.000000 -27.573862 -12.289756 4.128313 -38.521507 -14.092710 -1.450405 -13.926749 -33.098281 5.303317 0.000000 0.000000 0.000000 33.546948 -2.679979 -2.451696 42.698365 13.523300 -2.018285 10.146841 29.630116 4.025846 0.000000 0.000000 0.000000 
0.401849 0.908632 -1.427616 1.613349 0.871899 -4.542397 15.464262 0.244839 -6.697787 -6.876219 0.839747 3.500780 8.290375 18.209251 18.808656 0.000000 0.000000 0.000000 -2.496307 0.664614 -8.258490 7.228016 -1.359249 21.427331 -5.344515 -12.322831 -5.006767 0.000000 0.000000 0.000000 11.751112 -4.688546 31.939588 -5.927616 2.038399 -26.608324 -5.308998 3.568165 22.520042 9.903355 -2.649768 -30.832000 0.000000 0.000000 0.000000 -27.407338 -12.498067 4.271570 -38.419171 -14.827945 -1.223964 -13.437414 -33.698203 5.254425 0.000000 0.000000 0.000000 33.550084 -2.448076 -2.317951 42.758417 13.770041 -1.911314 9.870046 29.739687 3.963553 0.000000 0.000000 0.000000 
0.405027 0.909584 -1.427178 1.855823 0.351171 -5.158875 15.111951 0.242286 -5.872776 -7.036240 0.878357 3.657589 8.868000 18.923014 18.745976 0.000000 0.000000 0.000000 -2.585353 0.622318 -7.789889 6.634024 -1.142080 21.690788 -5.274037 -12.049719 -5.054304 0.000000 0.000000 0.000000 11.686240 -4.757365 33.073746 -5.874659 2.025505 -26.634907 -5.530902 3.792331 22.494255 9.090984 -2.254277 -30.637957 0.000000 0.000000 0.000000 -27.081757 -12.473591 4.253890 -38.477342 -15.339566 -1.076882 -13.682013 -35.289329 5.591837 0.000000 0.000000 0.000000 33.145066 -2.748688 -2.503955 43.251141 14.439016 -1.676454 9.137817 29.645986 3.774580 0.000000 0.000000 0.000000 
0.408849 0.910572 -1.427391 1.995289 0.966260 -5.602132 14.728867 0.214465 -5.937629 -7.292092 0.921720 4.309871 8.915933 19.031451 18.397129 0.000000 0.000000 0.000000 -3.016137 0.551554 -7.290267 6.847233 -1.254123 21.813335 -5.281759 -12.115543 -5.108618 0.000000 0.000000 0.000000 11.975597 -4.989065 33.672702 -6.236201 2.141837 -26.059599 -5.470566 3.584460 22.384554 9.157818 -2.360229 -30.141568 0.000000 0.000000 0.000000 -26.850956 -13.167010 4.631971 -38.442353 -16.208925 -0.798990 -13.342133 -36.495468 5.669765 0.000000 0.000000 0.000000 32.392970 -2.751258 -2.410841 43.433443 15.214345 -1.392250 8.514176 28.969607 3.514126 0.000000 0.000000 0.000000 
